<svg version="1.2" xmlns="http://www.w3.org/2000/svg" viewBox="0 0 633 200" width="633" height="200">
	<style>
		.s0 { fill: #000000 } 
	</style>
	<path id="عين ع البلد" class="s0" d="m72.52 101.24q-2.16 0-3.78 1.62-3.06 2.7-7.38 3.6-5.94 0.9-12.96 1.8-7.02 0.9-13.32 1.26-6.66 0.36-13.68 1.44-6.84 1.08-12.6 2.52-1.26 0.36-2.34 1.26-0.9 0.72-0.9 2.16 0 1.26 1.08 2.34 1.08 0.9 4.5 2.7 3.6 1.8 9.18 4.32 6.48 2.7 12.78 5.22 6.3 2.52 14.04 2.52 3.78 0 6.3-0.72 2.7-0.9 5.22-2.7 3.06-2.16 5.4-5.4 2.34-3.42 4.68-6.84 2.52-3.6 5.4-5.76 3.42-1.44 3.42-6.3 0-1.98-1.26-3.42-1.26-1.62-3.78-1.62zm10.42 23.04q4.68 0 8.82-1.8 4.32-1.8 7.74-3.78 4.14-2.7 8.1-5.58 3.96-2.88 7.2-6.3l1.26 16.56q0.18 1.62 1.62 1.98 1.44 0.36 2.34-0.9l12.78-18.72-5.76-88.02q-0.18-1.44-1.8-1.98-1.44-0.54-2.16 0.9l-13.32 21.96 3.78 52.56q-1.26 0.54-2.7 1.08-1.26 0.54-3.06 1.08-3.42 1.08-9 2.52-5.4 1.26-9.36 1.26-3.6 0-5.76-0.72-1.98-0.36-3.24-2.7-1.26-2.52-1.26-5.4 0-1.8 0.18-3.42 0.36-1.8-1.8-1.8l-0.36 0.18q-0.9 0-1.62 0.72-2.88 3.96-5.04 9-2.16 4.86-3.6 10.62-0.72 2.34-0.72 5.58 0 7.2 4.68 11.16 4.86 3.96 12.06 3.96zm77 26.1l-11.88-11.34q-0.72-0.72-1.8-0.54-0.9 0.18-1.44 0.9-3.42 4.5-7.02 8.82-3.42 4.32-7.02 8.82-1.08 1.44 0.18 2.7l12.06 11.34q0.72 0.72 1.62 0.72 0.9-0.18 1.44-0.9 1.8-2.16 2.52-3.24 0.9-1.26 1.8-2.34 0.9-1.08 2.7-3.24 1.8-2.16 3.6-4.32 1.8-2.16 3.6-4.5 0.9-1.62-0.36-2.88zm-5.76-29.16h0.18q0.72 0 1.44-0.72 4.86-5.22 8.28-11.52 3.42-6.48 6.12-13.68 0.9-2.52 1.8-4.5 0.9-2.16 0.9-5.04 0-3.06-2.34-3.06-1.8 0-2.7 1.62-2.34 5.04-6.48 7.56-1.8 0.9-5.4 1.98-3.42 1.08-8.28 1.98-9.72 1.8-25.74 3.24-1.62 0.36-1.98 1.8l-3.6 21.96q-0.18 1.08 0.36 1.98 0.72 0.72 1.8 0.54 8.46-0.9 17.28-2.34 8.82-1.62 15.66-3.96 0.54 2.16 2.7 2.16zm40.5-34.92q-8.28 3.42-17.1 5.04-8.82 1.62-19.44 3.42-1.44 0.36-1.8 1.8l-3.78 21.6 1.26 1.62q7.92-1.98 13.86-3.24 5.94-1.44 9.9-2.34 3.96-0.9 6.12-1.44 2.16-0.72 2.52-0.9 8.64-4.68 14.76-12.24 6.12-7.74 8.82-18.18 1.98-7.02 1.98-16.38 0-0.54 0-0.72 0-0.36 0-0.9 0-0.36 0-0.72 0-0.36 0-0.72l-3.24-57.96q0-1.44-1.44-1.98-1.44-0.54-2.34 0.9l-13.32 21.06q0.9 16.38 1.98 31.32 1.08 14.76 1.26 30.96zm43.8-74.88l-13.14 21.06 5.04 74.52q0.18 1.62 1.62 1.98 1.44 0.18 2.16-1.08l13.32-20.88-5.04-74.7q-0.18-1.62-1.62-1.8-1.44-0.36-2.34 0.9zm161.9 154.44l-0.18 0.18q0.72-0.72 0.72-1.8 0-2.16-2.52-2.16-0.9 0-2.52 0.54-10.08 2.52-22.5 4.68-12.24 2.16-24.66 2.16-0.72 0-1.08 0-0.18 0-1.08 0-31.5 0-47.7-18.18-0.9-1.08-1.62-2.52-0.72-1.62-0.72-3.42 0-3.06 1.62-6.48 4.5-9.54 12.06-18.36 7.56-8.82 15.3-15.66v0.18l5.4-5.04q1.8-1.62 3.42-3.06 1.62-1.62 3.24-2.88 1.26-1.08 2.7-2.16 1.44-1.26 2.88-2.52 4.14-3.24 8.82-6.84 4.68-3.78 6.66-8.82l7.92-20.16q0.36-1.26-0.36-1.98-0.72-0.9-1.8-0.9-0.54 0-1.26 0.72-3.96 3.78-8.46 6.84-4.5 3.06-9.72 5.76v-0.18q-2.34 1.08-4.5 1.8-1.98 0.54-3.6 0.54-3.42 0-5.94-2.16-3.78-3.24-5.76-6.12-1.98-2.88-3.06-7.92 7.2 1.08 14.94 3.24 1.98 0.54 2.7-1.26l7.2-22.68q0.36-1.08-0.18-1.8-0.36-0.72-1.26-0.9l-3.42-0.72q-3.42-0.9-6.84-1.44-3.24-0.72-7.2-0.9-5.76 0-9.9 3.42-3.96 3.42-6.48 8.46-2.52 4.86-3.78 9.9-1.26 5.22-1.26 10.98 0 8.64 2.16 14.76 2.34 6.12 6.3 10.98 0.9 1.26 1.8 2.34 0.9 1.08 1.62 2.16-7.74 6.66-14.22 15.84-6.3 9.18-11.34 19.44-3.42 7.38-6.3 16.02-2.88 8.46-2.88 18 0 7.92 1.98 14.22 2.16 6.3 5.58 10.98 5.76 7.56 16.38 11.88 10.8 4.32 22.86 4.32 14.4 0 27.72-4.32 13.5-4.5 24.48-11.52 10.98-7.2 17.64-15.48zm96.26-75.96v0.54q-1.98 1.8-4.14 3.42-2.16 1.62-4.68 3.06-5.22 3.06-12.24 5.58-6.84 2.34-14.94 2.34-2.34 0-4.86-0.18-2.34-0.18-5.22-0.72-7.74-3.6-7.74-9.36 0-1.44 0.36-2.7 0.54-1.26 0.9-2.52l-0.18 0.18q1.98-5.22 3.96-10.26 2.16-5.04 4.5-9.72l10.98 7.2q2.16 1.26 3.06-0.72 2.88-5.04 5.58-9.9 2.7-5.04 5.58-10.08 0.54-0.9 0.18-1.62-0.18-0.9-0.72-1.26l-14.22-9.36h-0.18l-2.52-1.44q-0.72-0.54-1.62-0.18-0.9 0.18-1.26 0.9l-2.52 4.5q-4.86 8.46-10.08 18.72-5.04 10.26-8.1 18.72-4.14 11.88-4.14 19.98 0 0.36 0 0.72 0 0.18 0 0.72 0 0.36 0 0.72 0.18 0.18 0.18 0.54 0.9 8.1 3.96 14.4 3.24 6.3 9 9.18v-0.18q2.88 1.26 5.76 2.16 3.06 0.72 6.12 0.72 3.42 0 7.02-0.72 3.6-0.9 7.56-2.16 15.48-5.76 25.38-19.98 2.52-3.6 4.5-7.56 1.98-3.96 3.6-7.92 2.52-6.12 4.14-12.78 1.8-6.66 1.8-14.76 0-12.24-5.76-24.66-0.54-1.44-1.98-1.44-1.26 0-1.8 1.44l-9.9 22.5q1.62 5.58 3.06 11.16 1.62 5.58 1.62 12.78zm46.32 38.88l10.26-20.34q0.9-1.44 0-2.34-0.9-1.08-2.16-0.72-8.1 1.62-16.38 3.24-8.1 1.44-16.56 2.88-0.36 0.18-0.9 0.54-0.54 0.18-0.72 0.54l-10.08 20.52q-0.72 1.26 0 2.34 0.9 0.9 2.16 0.72 8.28-1.44 16.38-3.06 8.28-1.62 16.56-3.06 1.08-0.54 1.44-1.26zm-3.78-40.14h0.18q0.72 0 1.44-0.72 4.86-5.22 8.28-11.52 3.42-6.48 6.12-13.68 0.9-2.52 1.8-4.5 0.9-2.16 0.9-5.04 0-3.06-2.34-3.06-1.8 0-2.7 1.62-2.34 5.04-6.48 7.56-1.8 0.9-5.4 1.98-3.42 1.08-8.28 1.98-9.72 1.8-25.74 3.24-1.62 0.36-1.98 1.8l-3.6 21.96q-0.18 1.08 0.36 1.98 0.72 0.72 1.8 0.54 8.46-0.9 17.28-2.34 8.82-1.62 15.66-3.96 0.54 2.16 2.7 2.16zm85.04-48.42q-0.18 0-0.36 0-0.18 0-0.54 0-0.18 0-0.72 0.54-1.44 0.54-3.06 1.26-1.44 0.54-2.88 1.26-3.96 1.8-8.1 3.6-3.96 1.8-9.72 2.16-3.24-2.88-5.76-6.66-2.52-3.78-3.96-8.46 3.78 0.36 7.56 1.26 3.78 0.9 7.56 1.98 1.8 0.54 2.52-1.26l7.38-22.5q0.36-1.08-0.18-1.8-0.54-0.9-1.44-1.08l-2.88-0.72 0.18 0.18q-3.6-0.9-7.02-1.62-3.42-0.72-7.56-0.9-6.66 0-11.88 6.3-4.32 5.4-7.38 13.5-3.06 8.1-3.24 17.28-0.18 0.54-0.18 1.26 0 3.24 0.54 5.94 0.72 2.7 1.62 5.04-7.38 1.8-15.12 2.88-7.74 0.9-17.1 2.34-1.44 0.36-1.8 1.8l-4.14 22.5q-0.18 1.26 0.54 1.98 0.72 0.72 1.98 0.54 9.72-1.98 19.26-4.14 9.54-2.16 19.26-4.5 10.98-2.52 20.7-6.12 9.72-3.78 18.54-8.64l1.08-1.08 1.26-2.7q1.62-3.6 3.6-7.74 1.98-4.32 3.24-8.1 0.72-1.62 0.72-2.7 0-2.88-2.52-2.88z"/>
</svg>