<svg version="1.2" xmlns="http://www.w3.org/2000/svg" viewBox="0 0 400 400" width="400" height="400">
	<style>
		.s0 { fill: #000000 } 
	</style>
	<path id="عين ع  البلد" class="s0" d="m158.72 176.05l-0.14 0.14q0.54-0.54 0.54-1.34 0-1.61-1.88-1.61-0.67 0-1.87 0.4-7.51 1.88-16.75 3.49-9.11 1.6-18.36 1.6-0.54 0-0.8 0-0.14 0-0.81 0-23.45 0-35.51-13.53-0.67-0.8-1.2-1.88-0.54-1.2-0.54-2.54 0-2.28 1.21-4.83 3.35-7.1 8.97-13.66 5.63-6.57 11.39-11.66v0.13l4.02-3.75q1.34-1.21 2.55-2.28 1.21-1.2 2.41-2.14 0.94-0.81 2.01-1.61 1.07-0.94 2.15-1.88 3.08-2.41 6.56-5.09 3.49-2.81 4.96-6.56l5.9-15.01q0.26-0.94-0.27-1.48-0.54-0.67-1.34-0.67-0.4 0-0.94 0.54-2.95 2.81-6.3 5.09-3.35 2.28-7.23 4.29v-0.13q-1.75 0.8-3.35 1.34-1.48 0.4-2.68 0.4-2.55 0-4.43-1.61-2.81-2.41-4.28-4.56-1.48-2.14-2.28-5.89 5.36 0.8 11.12 2.41 1.47 0.4 2.01-0.94l5.36-16.88q0.27-0.81-0.13-1.34-0.27-0.54-0.94-0.67l-2.55-0.54q-2.54-0.67-5.09-1.07-2.41-0.54-5.36-0.67-4.29 0-7.37 2.55-2.95 2.54-4.82 6.29-1.88 3.62-2.82 7.37-0.94 3.89-0.94 8.18 0 6.43 1.61 10.99 1.74 4.55 4.69 8.17 0.67 0.94 1.34 1.74 0.67 0.81 1.21 1.61-5.76 4.96-10.59 11.79-4.69 6.84-8.44 14.47-2.55 5.5-4.69 11.93-2.14 6.3-2.14 13.4 0 5.9 1.47 10.59 1.61 4.69 4.15 8.17 4.29 5.63 12.2 8.84 8.04 3.22 17.02 3.22 10.72 0 20.63-3.22 10.05-3.35 18.23-8.57 8.17-5.36 13.13-11.53zm71.82-56.54v0.4q-1.47 1.34-3.08 2.54-1.61 1.21-3.48 2.28-3.89 2.28-9.12 4.16-5.09 1.74-11.12 1.74-1.74 0-3.62-0.14-1.74-0.13-3.88-0.53-5.76-2.68-5.76-6.97 0-1.07 0.26-2.01 0.41-0.94 0.67-1.88l-0.13 0.14q1.47-3.89 2.95-7.64 1.61-3.75 3.35-7.24l8.17 5.36q1.61 0.94 2.28-0.53 2.14-3.75 4.15-7.37 2.01-3.75 4.16-7.51 0.4-0.67 0.13-1.2-0.13-0.67-0.53-0.94l-10.59-6.97h-0.13l-1.88-1.07q-0.54-0.4-1.21-0.13-0.67 0.13-0.93 0.67l-1.88 3.35q-3.62 6.29-7.5 13.93-3.76 7.64-6.03 13.94-3.09 8.84-3.09 14.87 0 0.27 0 0.54 0 0.13 0 0.53 0 0.27 0 0.54 0.14 0.13 0.14 0.4 0.67 6.03 2.95 10.72 2.41 4.69 6.7 6.84v-0.14q2.14 0.94 4.28 1.61 2.28 0.54 4.56 0.54 2.55 0 5.23-0.54 2.68-0.67 5.62-1.61 11.53-4.29 18.9-14.87 1.87-2.68 3.35-5.63 1.47-2.95 2.68-5.9 1.87-4.55 3.08-9.51 1.34-4.96 1.34-10.99 0-9.11-4.29-18.36-0.4-1.07-1.47-1.07-0.94 0-1.34 1.07l-7.37 16.75q1.2 4.16 2.28 8.31 1.2 4.16 1.2 9.52zm34.04 28.94l7.64-15.14q0.67-1.07 0-1.74-0.67-0.81-1.61-0.54-6.03 1.21-12.2 2.41-6.03 1.07-12.32 2.15-0.27 0.13-0.67 0.4-0.41 0.13-0.54 0.4l-7.5 15.28q-0.54 0.93 0 1.74 0.67 0.67 1.6 0.53 6.17-1.07 12.2-2.27 6.16-1.21 12.33-2.28 0.8-0.4 1.07-0.94zm-2.68-29.88h0.13q0.54 0 1.07-0.54 3.62-3.88 6.17-8.57 2.54-4.83 4.55-10.19 0.67-1.87 1.34-3.35 0.67-1.61 0.67-3.75 0-2.28-1.74-2.28-1.34 0-2.01 1.21-1.74 3.75-4.82 5.63-1.34 0.67-4.02 1.47-2.55 0.8-6.17 1.47-7.23 1.34-19.16 2.42-1.2 0.26-1.47 1.34l-2.68 16.34q-0.14 0.81 0.27 1.48 0.53 0.53 1.34 0.4 6.29-0.67 12.86-1.74 6.57-1.21 11.66-2.95 0.4 1.61 2.01 1.61zm63.78-36.05q-0.13 0-0.27 0-0.13 0-0.4 0-0.13 0-0.53 0.4-1.08 0.41-2.28 0.94-1.07 0.4-2.15 0.94-2.94 1.34-6.03 2.68-2.94 1.34-7.23 1.61-2.41-2.15-4.29-4.96-1.88-2.81-2.95-6.3 2.82 0.27 5.63 0.94 2.81 0.67 5.63 1.47 1.34 0.41 1.87-0.93l5.5-16.75q0.27-0.81-0.14-1.34-0.4-0.67-1.07-0.81l-2.14-0.53 0.13 0.13q-2.68-0.67-5.22-1.21-2.55-0.53-5.63-0.67-4.96 0-8.85 4.69-3.21 4.02-5.49 10.05-2.28 6.03-2.41 12.87-0.14 0.4-0.14 0.94 0 2.41 0.41 4.42 0.53 2.01 1.2 3.75-5.49 1.34-11.25 2.14-5.77 0.67-12.73 1.75-1.08 0.26-1.34 1.34l-3.09 16.75q-0.13 0.93 0.41 1.47 0.53 0.54 1.47 0.4 7.24-1.47 14.34-3.08 7.1-1.61 14.34-3.35 8.17-1.88 15.41-4.56 7.23-2.81 13.8-6.43l0.8-0.8 0.94-2.01q1.21-2.68 2.68-5.76 1.47-3.22 2.41-6.03 0.54-1.21 0.54-2.01 0-2.15-1.88-2.15zm-168.57 206.23q-1.61 0-2.81 1.2-2.28 2.01-5.5 2.68-4.42 0.67-9.65 1.34-5.22 0.67-9.91 0.94-4.96 0.27-10.19 1.07-5.09 0.81-9.38 1.88-0.93 0.27-1.74 0.94-0.67 0.53-0.67 1.61 0 0.93 0.81 1.74 0.8 0.67 3.35 2.01 2.68 1.34 6.83 3.21 4.82 2.01 9.51 3.89 4.69 1.88 10.46 1.88 2.81 0 4.69-0.54 2.01-0.67 3.88-2.01 2.28-1.61 4.02-4.02 1.74-2.55 3.49-5.09 1.87-2.68 4.02-4.29 2.54-1.07 2.54-4.69 0-1.47-0.94-2.55-0.93-1.2-2.81-1.2zm7.64 17.15q3.48 0 6.56-1.34 3.22-1.34 5.77-2.81 3.08-2.01 6.03-4.16 2.94-2.14 5.36-4.69l0.93 12.33q0.14 1.21 1.21 1.47 1.07 0.27 1.74-0.67l9.52-13.93-4.29-65.53q-0.14-1.07-1.34-1.47-1.07-0.4-1.61 0.67l-9.92 16.35 2.82 39.12q-0.94 0.41-2.01 0.81-0.94 0.4-2.28 0.8-2.55 0.81-6.7 1.88-4.02 0.94-6.97 0.94-2.68 0-4.29-0.54-1.47-0.27-2.41-2.01-0.94-1.88-0.94-4.02 0-1.34 0.14-2.55 0.27-1.34-1.34-1.34l-0.27 0.14q-0.67 0-1.21 0.53-2.14 2.95-3.75 6.7-1.61 3.62-2.68 7.91-0.53 1.74-0.53 4.15 0 5.36 3.48 8.31 3.62 2.95 8.98 2.95zm57.62 19.43l-8.85-8.44q-0.53-0.54-1.34-0.4-0.67 0.13-1.07 0.67-2.54 3.35-5.22 6.56-2.55 3.22-5.23 6.57-0.8 1.07 0.13 2.01l8.98 8.44q0.54 0.54 1.21 0.54 0.67-0.14 1.07-0.67 1.34-1.61 1.88-2.42 0.67-0.93 1.34-1.74 0.67-0.8 2.01-2.41 1.34-1.61 2.68-3.22 1.34-1.6 2.68-3.35 0.67-1.2-0.27-2.14zm-4.16-21.71h0.14q0.53 0 1.07-0.53 3.62-3.89 6.16-8.58 2.55-4.82 4.56-10.18 0.67-1.88 1.34-3.35 0.67-1.61 0.67-3.76 0-2.27-1.74-2.27-1.34 0-2.01 1.2-1.74 3.75-4.83 5.63-1.34 0.67-4.02 1.47-2.54 0.81-6.16 1.48-7.24 1.34-19.16 2.41-1.21 0.27-1.48 1.34l-2.68 16.35q-0.13 0.8 0.27 1.47 0.54 0.54 1.34 0.4 6.3-0.67 12.87-1.74 6.56-1.2 11.65-2.95 0.41 1.61 2.01 1.61zm29.89-25.99q-6.17 2.54-12.73 3.75-6.57 1.2-14.48 2.54-1.07 0.27-1.34 1.34l-2.81 16.08 0.94 1.21q5.89-1.47 10.32-2.41 4.42-1.07 7.37-1.74 2.94-0.67 4.55-1.08 1.61-0.53 1.88-0.67 6.43-3.48 10.99-9.11 4.55-5.76 6.56-13.53 1.48-5.23 1.48-12.2 0-0.4 0-0.53 0-0.27 0-0.67 0-0.27 0-0.54 0-0.27 0-0.53l-2.42-43.15q0-1.07-1.07-1.48-1.07-0.4-1.74 0.67l-9.92 15.68q0.67 12.2 1.48 23.32 0.8 10.99 0.94 23.05zm32.56-55.75l-9.78 15.68 3.75 55.48q0.13 1.2 1.2 1.47 1.08 0.13 1.61-0.8l9.92-15.55-3.75-55.61q-0.14-1.2-1.21-1.34-1.07-0.27-1.74 0.67z"/>
</svg>