<svg version="1.2" xmlns="http://www.w3.org/2000/svg" viewBox="0 0 400 400" width="400" height="400">
	<style>
		.s0 { fill: #000000 } 
	</style>
	<path id="ع" class="s0" d="m312.32 307.35l-0.34 0.35q1.4-1.4 1.4-3.5 0-4.2-4.9-4.2-1.75 0-4.91 1.05-19.59 4.9-43.75 9.1-23.8 4.2-47.94 4.2-1.4 0-2.1 0-0.35 0-2.1 0-61.25 0-92.75-35.35-1.75-2.1-3.15-4.9-1.4-3.15-1.4-6.65 0-5.95 3.15-12.6 8.75-18.55 23.45-35.7 14.7-17.15 29.75-30.45v0.35l10.5-9.8q3.5-3.15 6.65-5.95 3.14-3.15 6.3-5.6 2.44-2.1 5.25-4.2 2.8-2.45 5.6-4.9 8.04-6.3 17.15-13.3 9.09-7.35 12.95-17.15l15.39-39.2q0.71-2.45-0.7-3.85-1.39-1.75-3.5-1.75-1.05 0-2.44 1.4-7.7 7.35-16.45 13.3-8.75 5.95-18.9 11.2v-0.35q-4.55 2.1-8.75 3.5-3.85 1.05-7 1.05-6.65 0-11.55-4.2-7.35-6.3-11.2-11.9-3.85-5.6-5.96-15.4 14 2.1 29.06 6.3 3.85 1.05 5.25-2.45l14-44.1q0.69-2.1-0.35-3.5-0.71-1.4-2.46-1.75l-6.64-1.4q-6.66-1.75-13.3-2.8-6.31-1.4-14-1.75-11.2 0-19.25 6.65-7.7 6.65-12.6 16.45-4.9 9.45-7.35 19.25-2.45 10.15-2.45 21.35 0 16.8 4.2 28.7 4.55 11.9 12.25 21.35 1.75 2.45 3.5 4.55 1.75 2.1 3.14 4.2-15.04 12.95-27.64 30.8-12.25 17.85-22.05 37.8-6.65 14.35-12.25 31.15-5.6 16.45-5.6 35 0 15.4 3.85 27.65 4.2 12.25 10.85 21.35 11.2 14.7 31.84 23.1 21 8.4 44.46 8.4 28 0 53.9-8.4 26.25-8.75 47.59-22.4 21.36-14 34.3-30.1z"/>
</svg>